<?xml version="1.0" encoding="UTF-8" standalone="no"?>
<!-- Created with Inkscape (http://www.inkscape.org/) -->

<svg
   width="300mm"
   height="50mm"
   viewBox="0 0 300 50"
   version="1.1"
   id="svg5"
   inkscape:version="1.2 (dc2aedaf03, 2022-05-15)"
   sodipodi:docname="partner_setup.svg"
   xml:space="preserve"
   xmlns:inkscape="http://www.inkscape.org/namespaces/inkscape"
   xmlns:sodipodi="http://sodipodi.sourceforge.net/DTD/sodipodi-0.dtd"
   xmlns="http://www.w3.org/2000/svg"
   xmlns:svg="http://www.w3.org/2000/svg"><sodipodi:namedview
     id="namedview7"
     pagecolor="#ffffff"
     bordercolor="#666666"
     borderopacity="1.0"
     inkscape:showpageshadow="2"
     inkscape:pageopacity="0.0"
     inkscape:pagecheckerboard="0"
     inkscape:deskcolor="#d1d1d1"
     inkscape:document-units="mm"
     showgrid="false"
     inkscape:zoom="0.74564394"
     inkscape:cx="498.22708"
     inkscape:cy="-80.467361"
     inkscape:window-width="1920"
     inkscape:window-height="1017"
     inkscape:window-x="1912"
     inkscape:window-y="-8"
     inkscape:window-maximized="1"
     inkscape:current-layer="layer1" /><defs
     id="defs2" /><g
     inkscape:label="Layer 1"
     inkscape:groupmode="layer"
     id="layer1"><rect
       style="fill:#666666;stroke:#aaffff;stroke-width:0.183936;stroke-miterlimit:42.8"
       id="rect234-5"
       width="298.50043"
       height="46.210094"
       x="2.7981727"
       y="3.5078564"
       rx="12"
       ry="12" /><rect
       style="fill:#008080;stroke:#aaffff;stroke-width:0.183718;stroke-miterlimit:42.8"
       id="rect234"
       width="297.79095"
       height="46.210312"
       x="0.091858998"
       y="0.091858998"
       rx="12"
       ry="12" /><text
       xml:space="preserve"
       style="font-size:35.2778px;line-height:1.25;font-family:Roboto;-inkscape-font-specification:Roboto;letter-spacing:0px;word-spacing:0px;stroke-width:0.264583"
       x="18.096777"
       y="35.483868"
       id="text1028"><tspan
         sodipodi:role="line"
         id="tspan1026"
         style="font-style:normal;font-variant:normal;font-weight:300;font-stretch:normal;font-size:35.2778px;font-family:Roboto;-inkscape-font-specification:'Roboto Light';fill:#f9f9f9;stroke-width:0.264583"
         x="18.096777"
         y="35.483868">Partner Setup</tspan></text><path
       id="XMLID_160_"
       d="m 257.61291,31.411579 c -4.11286,0 -7.48851,-3.403187 -7.48851,-7.637385 0,-4.194625 3.33684,-7.637384 7.48851,-7.637384 4.11286,0 7.48851,3.403188 7.48851,7.637384 0,4.194626 -3.37565,7.637385 -7.48851,7.637385 z m 0,-12.465161 c -2.59964,0 -4.73367,2.176457 -4.73367,4.827776 0,2.651321 2.13403,4.827777 4.73367,4.827777 2.59964,0 4.73366,-2.176456 4.73366,-4.827777 0,-2.651319 -2.13402,-4.827776 -4.73366,-4.827776 z m 0,23.030867 h -0.194 c -1.35803,0 -2.52205,-0.158289 -2.59964,-0.158289 -0.62081,-0.07915 -1.08642,-0.554006 -1.20282,-1.187158 l -0.38801,-2.849179 c -0.85361,-0.277004 -1.66841,-0.633151 -2.44443,-1.068443 l -2.17283,1.701595 c -0.50441,0.395718 -1.16402,0.356147 -1.66843,0 -0.0389,-0.03957 -0.97,-0.79144 -1.94002,-1.741166 l -0.15521,-0.158287 c -0.97,-0.9893 -1.66841,-1.939026 -1.70721,-1.978598 -0.38802,-0.514435 -0.38802,-1.187158 0,-1.701591 l 1.70721,-2.295174 c -0.4268,-0.791437 -0.7372,-1.662021 -1.0088,-2.532603 l -2.71605,-0.395719 c -0.62081,-0.07915 -1.08641,-0.593579 -1.16402,-1.226731 -0.0389,-0.03957 -0.194,-1.22673 -0.194,-2.611748 v -0.197859 c 0,-1.385018 0.15521,-2.572176 0.15521,-2.651321 0.0776,-0.63315 0.5432,-1.108013 1.16402,-1.226729 l 2.79364,-0.395719 c 0.27159,-0.870584 0.6208,-1.701594 1.04761,-2.493032 l -1.66843,-2.21603 c -0.388,-0.514434 -0.3492,-1.187158 0,-1.701592 0.0389,-0.03957 0.77602,-0.9893 1.70723,-1.978598 l 0.1552,-0.158287 c 0.97001,-0.9892996 1.90123,-1.7015945 1.94003,-1.7411659 0.50441,-0.3957189 1.16402,-0.3957189 1.66843,0 l 2.25042,1.7411659 c 0.77602,-0.435292 1.62963,-0.751868 2.48323,-1.028871 l 0.38802,-2.7700352 c 0.0776,-0.633152 0.582,-1.1080152 1.20282,-1.1871581 0.0389,-0.039574 1.20282,-0.1978602 2.56083,-0.1978602 h 0.194 c 1.35802,0 2.52204,0.1582873 2.59964,0.1582873 0.62081,0.079149 1.08641,0.5540076 1.20282,1.1871581 l 0.388,2.8491795 c 0.85361,0.2770046 1.66843,0.6331516 2.44443,1.0684426 l 2.17284,-1.7015931 c 0.5044,-0.3957189 1.16401,-0.3561474 1.66842,0 0.0389,0.039574 0.97002,0.7914393 1.94003,1.7411661 l 0.1552,0.158287 c 0.97002,0.989298 1.66843,1.939024 1.70723,1.978597 0.388,0.514435 0.388,1.187159 0,1.701593 l -1.66843,2.295173 c 0.42681,0.791439 0.73722,1.662021 1.00881,2.532605 l 2.71605,0.395718 c 0.6208,0.07915 1.08641,0.59358 1.16401,1.22673 0,0.03957 0.1552,1.266303 0.1552,2.651321 v 0.197859 c 0,1.385018 -0.1552,2.572176 -0.1552,2.65132 -0.0776,0.633151 -0.54321,1.108014 -1.16401,1.22673 l -2.79364,0.395719 c -0.27161,0.870584 -0.62082,1.701594 -1.04763,2.493032 l 1.66843,2.2556 c 0.388,0.514435 0.34921,1.187157 0,1.701593 -0.0389,0.03957 -0.77602,0.989298 -1.70723,1.978596 l -0.1552,0.158289 c -0.97001,0.989298 -1.90122,1.701593 -1.94003,1.741164 -0.50439,0.395721 -1.16401,0.395721 -1.66841,0 l -2.25044,-1.780737 c -0.776,0.435292 -1.62962,0.751868 -2.48323,1.028871 l -0.388,2.770035 c -0.0776,0.633152 -0.58202,1.108015 -1.20282,1.187158 -0.0389,0 -1.20282,0.158289 -2.56084,0.158289 z m -1.39682,-2.84918 c 0.3492,0.03957 0.776,0.03957 1.20282,0.03957 h 0.194 c 0.42681,0 0.85361,0 1.20282,-0.03957 l 0.3492,-2.611747 c 0.0776,-0.59358 0.50441,-1.028871 1.04762,-1.187159 1.20281,-0.277004 2.36682,-0.751867 3.41445,-1.424589 0.3104,-0.197861 0.69841,-0.237432 1.0476,-0.158289 0.19402,0.03957 0.38802,0.158289 0.54322,0.277004 l 2.05642,1.582877 c 0.27161,-0.237431 0.58202,-0.514434 0.89241,-0.83101 l 0.15521,-0.158287 c 0.3104,-0.316577 0.58201,-0.633153 0.81481,-0.910156 l -1.55202,-2.097311 c -0.34921,-0.474864 -0.34921,-1.108014 -0.0776,-1.582877 0.65961,-1.028871 1.12522,-2.176456 1.39682,-3.363615 0.11644,-0.593579 0.58201,-1.068442 1.16402,-1.147586 l 2.59964,-0.356148 c 0.0389,-0.356147 0.0389,-0.791439 0.0389,-1.226729 v -0.158289 c 0,-0.43529 0,-0.870582 -0.0389,-1.22673 l -2.56084,-0.356147 c -0.54321,-0.07915 -1.00882,-0.514435 -1.16401,-1.068442 -0.27161,-1.22673 -0.73722,-2.374317 -1.35802,-3.442759 -0.0776,-0.07915 -0.11644,-0.19786 -0.15521,-0.316576 -0.1552,-0.43529 -0.0776,-0.949727 0.194,-1.305874 l 1.59083,-2.136885 c -0.2328,-0.277003 -0.50441,-0.593579 -0.81482,-0.910154 l -0.15517,-0.158288 c -0.31041,-0.316575 -0.62082,-0.593579 -0.89241,-0.831011 l -2.05644,1.582878 c -0.5044,0.356148 -1.16402,0.356148 -1.62963,0 -1.0088,-0.633152 -2.13401,-1.108015 -3.29803,-1.424589 -0.54321,-0.118724 -0.97002,-0.593579 -1.04762,-1.187158 l -0.3492,-2.6513213 c -0.34921,-0.039575 -0.77602,-0.039575 -1.20282,-0.039575 h -0.15521 c -0.42681,0 -0.85361,0 -1.20281,0.039575 l -0.34921,2.6908923 c -0.0776,0.633151 -0.54321,1.108014 -1.16402,1.187158 -1.16401,0.277003 -2.28923,0.751866 -3.29804,1.385018 -0.3104,0.197859 -0.69841,0.237432 -1.04761,0.158288 -0.194,-0.03957 -0.38802,-0.158288 -0.54321,-0.277003 l -2.01763,-1.582879 c -0.2716,0.237432 -0.58201,0.514436 -0.89241,0.831011 l -0.15521,0.158289 c -0.3104,0.316574 -0.582,0.63315 -0.8148,0.910153 l 1.55201,2.097314 c 0.34921,0.474863 0.34921,1.068442 0.0776,1.582877 -0.0389,0.03957 -0.0389,0.07915 -0.0776,0.118708 -0.6208,1.028871 -1.08641,2.176458 -1.35801,3.363616 -0.11644,0.554006 -0.58202,0.989298 -1.16402,1.068442 l -2.59964,0.356148 c -0.0389,0.356147 -0.0389,0.791437 -0.0389,1.226729 v 0.158287 c 0,0.435292 0,0.870584 0.0389,1.226732 l 2.56084,0.356147 c 0.6208,0.07915 1.08641,0.554006 1.16401,1.187158 0,0 0,0.03957 0,0.03957 0.27161,1.187158 0.73722,2.295171 1.35802,3.324042 0.194,0.356148 0.27161,0.79144 0.11644,1.187159 -0.0389,0.158287 -0.1552,0.316576 -0.27161,0.474863 l -1.51321,2.057739 c 0.2328,0.277004 0.50441,0.593579 0.8148,0.910155 l 0.15521,0.158287 c 0.3104,0.316573 0.62081,0.593576 0.89241,0.831008 l 2.05643,-1.582877 c 0.50441,-0.395719 1.24162,-0.356148 1.70723,0.03957 1.0088,0.633152 2.09523,1.068442 3.22044,1.385018 0.54321,0.118724 0.97002,0.593579 1.04761,1.187158 z"
       style="stroke-width:0.391843;fill:#ffffff" /></g></svg>
